<svg width="192" height="192" viewBox="0 0 192 192" fill="none" xmlns="http://www.w3.org/2000/svg">
<path d="M151.198 31.4235C141.533 25.3231 123.378 16.8226 105.937 24.6766C104.258 25.4346 102.346 24.242 102.346 22.4215V6.63542C102.349 2.98706 99.8331 0 96.7583 0H88.3716C85.2969 0 82.7805 2.98706 82.7805 6.63542V23.3577C82.7805 24.9367 81.328 26.133 79.7548 25.8135C72.6734 24.3757 54.2853 22.1391 36.7008 32.4824C34.2938 33.8979 35.6897 37.6131 38.4513 37.1153C46.6381 35.6403 57.4129 34.6261 64.6942 37.4571C66.6032 38.1964 66.8786 40.7674 65.162 41.8745C59.9896 45.1996 50.4485 52.8456 44.1971 66.9041C43.1332 69.2967 46.1212 71.4404 48.1698 69.7797C56.1566 63.3003 69.2969 54.5212 80.4414 55.9367C81.7543 56.1039 82.7503 57.159 82.7314 58.4631C82.6183 65.8267 82.7126 90.8451 88.8885 100.315C89.8618 101.809 92.0424 101.883 93.1026 100.445C97.0375 95.1214 105.568 81.0034 105.217 58.9572C105.194 57.5082 106.375 56.3305 107.846 56.3788C113.468 56.5571 126.74 58.1213 137.266 68.2453C138.99 69.906 141.846 68.4719 141.544 66.1165C140.718 59.6705 137.115 49.9217 124.073 42.3612C122.092 41.2132 122.428 38.293 124.657 37.7543C129.162 36.6657 136.926 35.6292 149.723 36.0453C152.323 36.1233 153.383 32.8019 151.198 31.4235Z" fill="#88C057"/>
<path d="M154.133 37.1152C153.783 36.8738 153.375 36.7214 152.949 36.6694C151.44 36.4874 149.927 36.3165 148.418 36.1158C147.878 36.0638 147.335 36.023 146.799 35.971C135.806 35.7926 128.905 36.7363 124.744 37.732C122.484 38.2744 122.077 41.1909 124.084 42.3537C137.126 49.9143 140.725 59.6631 141.552 66.1053C141.853 68.4607 138.997 69.8948 137.273 68.2341C126.747 58.1138 113.475 56.5497 107.854 56.3676C106.382 56.3193 105.198 57.4971 105.224 58.946C105.571 80.9923 97.045 95.1102 93.1101 100.434C92.0462 101.872 89.8694 101.798 88.896 100.304C82.7201 90.8339 82.6258 65.8155 82.739 58.4519C82.7578 57.1516 81.7619 56.0927 80.449 55.9255C69.3044 54.5063 56.1641 63.2891 48.1773 69.7685C46.1287 71.4292 43.1408 69.2855 44.2047 66.8929C50.4485 52.853 59.9745 45.2108 65.1507 41.8782C66.8748 40.7673 66.5881 38.1852 64.6678 37.4571C63.2681 36.9258 61.7402 36.532 60.1292 36.2533C59.8425 36.2013 59.5369 36.1976 59.2464 36.2385C50.0976 37.4645 41.1111 39.1772 32.3886 41.4807C32.0038 41.581 31.6454 41.763 31.3398 42.0157C12.0877 57.7906 0 80.5019 0 105.754C0 153.387 42.9823 192 96 192C149.018 192 192 153.387 192 105.754C192.004 77.7526 177.147 52.8679 154.133 37.1152Z" fill="#D13834"/>
<path d="M20.365 128.681C19.0748 128.681 17.8185 128.031 17.1167 126.861C14.2948 122.168 12.4461 116.986 11.6199 111.457C11.3181 109.425 12.7442 107.538 14.8041 107.24C16.9017 106.921 18.7843 108.348 19.0861 110.376C19.7576 114.883 21.3233 119.274 23.6095 123.075C24.6697 124.84 24.0811 127.121 22.2853 128.165C21.6817 128.514 21.0177 128.681 20.365 128.681Z" fill="#ED7161"/>
<path d="M15.8265 99.1152C15.7397 99.1152 15.6491 99.1115 15.5624 99.1041C13.4798 98.9629 11.9142 97.187 12.0575 95.1436C12.4122 90.2135 13.4383 85.4246 15.1172 80.8994C15.8302 78.9712 17.9882 77.9904 19.9576 78.6851C21.9156 79.3873 22.9191 81.5236 22.2061 83.4518C20.7687 87.3194 19.8897 91.4247 19.5878 95.6564C19.4483 97.618 17.792 99.1152 15.8265 99.1152Z" fill="#ED7161"/>
</svg>
